<svg width="442" height="106" viewBox="0 0 442 106" fill="none" xmlns="http://www.w3.org/2000/svg"><g filter="url(#filter0_d_2_11)"><path d="M57.628 8.7l-6.321 19.747L45.329 8.7H34.696l-6.321 19.502L22.397 8.7H10.49L21.466 43h12.397l5.831-18.326L45.231 43h12.397L68.604 8.7H57.628zM71.172 43h11.564V8.7H71.172V43zm35.114.784c11.172 0 19.355-7.546 19.355-17.934 0-10.388-8.183-17.934-19.355-17.934S86.931 15.462 86.931 25.85c0 10.388 8.183 17.934 19.355 17.934zm0-9.359c-4.263 0-7.693-3.234-7.693-8.575 0-5.341 3.43-8.575 7.693-8.575s7.693 3.234 7.693 8.575c0 5.341-3.43 8.575-7.693 8.575zm36.341 9.359c10.633 0 15.974-5.292 15.974-11.564 0-12.642-18.963-9.212-18.963-13.328 0-1.176 1.078-2.156 4.459-2.156 2.989 0 6.174.833 9.555 2.548l3.479-8.379c-3.577-2.009-8.33-2.989-12.936-2.989-10.633 0-15.974 5.194-15.974 11.564 0 12.789 18.963 9.31 18.963 13.622 0 1.176-1.176 1.862-4.459 1.862-3.773 0-8.085-1.225-11.319-3.136l-3.724 8.428c3.43 2.107 9.212 3.528 14.945 3.528zM184.582 8.7v15.582L171.548 8.7h-9.506V43h11.27V27.418L186.346 43h9.506V8.7h-11.27zM227.1 43h11.956L224.062 8.7h-11.368L197.7 43h11.76l2.303-5.978h13.034L227.1 43zm-12.152-14.308l3.332-8.624 3.332 8.624h-6.664zM255.592 43h11.564V8.7h-11.564V43zm31.821 0h27.048v-8.967h-15.484V8.7h-11.564V43zm56.397 0h11.956L340.772 8.7h-11.368L314.41 43h11.76l2.303-5.978h13.034L343.81 43zm-12.152-14.308l3.332-8.624 3.332 8.624h-6.664zM363.337 43h11.564V17.667h10.045V8.7h-31.654v8.967h10.045V43zm42.117.784c11.172 0 19.355-7.546 19.355-17.934 0-10.388-8.183-17.934-19.355-17.934s-19.355 7.546-19.355 17.934c0 10.388 8.183 17.934 19.355 17.934zm0-9.359c-4.263 0-7.693-3.234-7.693-8.575 0-5.341 3.43-8.575 7.693-8.575s7.693 3.234 7.693 8.575c0 5.341-3.43 8.575-7.693 8.575zM57.628 57.7l-6.321 19.747L45.329 57.7H34.696l-6.321 19.502L22.397 57.7H10.49L21.466 92h12.397l5.831-18.326L45.231 92h12.397l10.976-34.3H57.628zm41.741 35.084c10.633 0 15.974-5.292 15.974-11.564 0-12.642-18.963-9.212-18.963-13.328 0-1.176 1.078-2.156 4.459-2.156 2.989 0 6.174.833 9.555 2.548l3.479-8.379c-3.577-2.009-8.33-2.989-12.936-2.989-10.633 0-15.974 5.194-15.974 11.564 0 12.789 18.963 9.31 18.963 13.622 0 1.176-1.176 1.862-4.459 1.862-3.773 0-8.085-1.225-11.319-3.136l-3.724 8.428c3.43 2.107 9.212 3.528 14.945 3.528zm35.83 0c10.535 0 16.709-5.929 16.709-16.219V57.7H140.54v18.522c0 5.243-2.009 7.203-5.243 7.203-3.234 0-5.243-1.96-5.243-7.203V57.7H118.49v18.865c0 10.29 6.174 16.219 16.709 16.219zM173.722 57.7h-16.513V92h11.564v-8.428h4.949c9.555 0 15.631-4.998 15.631-12.936S183.277 57.7 173.722 57.7zm-.735 16.954h-4.214v-8.036h4.214c3.185 0 4.704 1.519 4.704 4.018 0 2.499-1.519 4.018-4.704 4.018zm31.527 8.624V78.77h14.504v-8.33h-14.504v-4.018h16.513V57.7h-27.881V92h28.518v-8.722h-17.15zM246.646 92h12.348l-7.203-10.584c4.116-2.107 6.468-5.831 6.468-10.78 0-7.938-6.076-12.936-15.631-12.936h-16.513V92h11.564v-8.624h3.136L246.646 92zm-.049-21.364c0 2.499-1.519 4.018-4.704 4.018h-4.214v-8.036h4.214c3.185 0 4.704 1.519 4.704 4.018zm48.457 22.148c6.713 0 12.005-2.45 15.386-6.86l-7.301-6.517c-2.009 2.548-4.41 4.018-7.497 4.018-4.802 0-8.036-3.332-8.036-8.575 0-5.243 3.234-8.575 8.036-8.575 3.087 0 5.488 1.47 7.497 4.018l7.301-6.517c-3.381-4.41-8.673-6.86-15.386-6.86-11.025 0-19.11 7.399-19.11 17.934s8.085 17.934 19.11 17.934zm30.093-9.506V78.77h14.504v-8.33h-14.504v-4.018h16.513V57.7h-27.881V92h28.518v-8.722h-17.15zM369.289 57.7v15.582L356.255 57.7h-9.506V92h11.27V76.418L371.053 92h9.506V57.7h-11.27zM386.131 92h11.564V57.7h-11.564V92zm28.499-8.722V78.77h14.504v-8.33H414.63v-4.018h16.513V57.7h-27.881V92h28.518v-8.722h-17.15z" fill="#fff"/></g><defs><filter id="filter0_d_2_11" x=".49" y=".916" width="441.29" height="104.868" filterUnits="userSpaceOnUse" color-interpolation-filters="sRGB"><feFlood flood-opacity="0" result="BackgroundImageFix"/><feColorMatrix in="SourceAlpha" values="0 0 0 0 0 0 0 0 0 0 0 0 0 0 0 0 0 0 127 0" result="hardAlpha"/><feOffset dy="3"/><feGaussianBlur stdDeviation="5"/><feComposite in2="hardAlpha" operator="out"/><feColorMatrix values="0 0 0 0 0 0 0 0 0 0 0 0 0 0 0 0 0 0 0.4 0"/><feBlend in2="BackgroundImageFix" result="effect1_dropShadow_2_11"/><feBlend in="SourceGraphic" in2="effect1_dropShadow_2_11" result="shape"/></filter></defs></svg>