<svg width="221" height="92" viewBox="0 0 221 92" fill="none" xmlns="http://www.w3.org/2000/svg"><path d="M18.696 14.252c0 1.264-.22 2.44-.66 3.528a8.492 8.492 0 01-1.836 2.844c-.792.8-1.748 1.428-2.868 1.884-1.112.456-2.348.684-3.708.684-1.36 0-2.6-.228-3.72-.684-1.12-.456-2.08-1.084-2.88-1.884a8.648 8.648 0 01-1.848-2.844c-.432-1.088-.648-2.264-.648-3.528 0-1.264.216-2.44.648-3.528a8.514 8.514 0 011.848-2.832c.8-.8 1.76-1.428 2.88-1.884 1.12-.456 2.36-.684 3.72-.684 1.36 0 2.596.232 3.708.696 1.12.456 2.076 1.084 2.868 1.884a8.362 8.362 0 011.836 2.832c.44 1.088.66 2.26.66 3.516zm-4.152 0c0-.864-.112-1.64-.336-2.328-.224-.696-.548-1.284-.972-1.764A4.112 4.112 0 0011.7 9.056c-.608-.256-1.3-.384-2.076-.384-.784 0-1.484.128-2.1.384a4.22 4.22 0 00-1.548 1.104c-.416.48-.736 1.068-.96 1.764-.224.688-.336 1.464-.336 2.328 0 .872.112 1.656.336 2.352.224.688.544 1.272.96 1.752.424.48.94.848 1.548 1.104.616.248 1.316.372 2.1.372.776 0 1.468-.124 2.076-.372a4.112 4.112 0 001.536-1.104c.424-.48.748-1.064.972-1.752.224-.696.336-1.48.336-2.352zM23.035 23V5.516h6.432c1.208 0 2.236.112 3.084.336.848.224 1.54.54 2.076.948.536.408.924.904 1.164 1.488.248.584.372 1.236.372 1.956 0 .392-.056.772-.168 1.14-.112.36-.288.7-.528 1.02-.24.32-.548.612-.924.876-.376.256-.828.48-1.356.672 1.152.28 2.004.736 2.556 1.368.552.624.828 1.428.828 2.412a5 5 0 01-.432 2.076 4.78 4.78 0 01-1.272 1.68c-.552.472-1.236.844-2.052 1.116-.816.264-1.748.396-2.796.396h-6.984zm4.056-7.416v4.356h2.856c.536 0 .972-.068 1.308-.204.344-.136.612-.312.804-.528.192-.216.324-.46.396-.732.072-.272.108-.548.108-.828 0-.32-.044-.608-.132-.864a1.368 1.368 0 00-.432-.648c-.2-.176-.468-.312-.804-.408-.336-.096-.76-.144-1.272-.144h-2.832zm0-2.712h2.112a6.96 6.96 0 001.212-.096c.36-.064.664-.176.912-.336.256-.16.448-.38.576-.66.136-.28.204-.632.204-1.056 0-.416-.052-.76-.156-1.032a1.484 1.484 0 00-.48-.672 2.018 2.018 0 00-.828-.36 5.557 5.557 0 00-1.176-.108h-2.376v4.32zm16.23-7.356c.176 0 .324.008.444.024s.228.048.324.096c.096.04.188.1.276.18.088.08.188.188.3.324l8.304 10.5a22.32 22.32 0 01-.072-.972c-.016-.32-.024-.62-.024-.9V5.516h3.576V23h-2.112c-.312 0-.576-.048-.792-.144-.216-.096-.424-.272-.624-.528l-8.244-10.416c.024.304.044.604.06.9.016.288.024.56.024.816V23h-3.576V5.516h2.136zM66.166 23h-4.08V5.516h4.08V23zm18.44-17.484V6.98c0 .208-.037.412-.109.612-.064.2-.156.388-.276.564L76.013 19.88h8.328V23H70.853v-1.56c0-.184.032-.364.096-.54.064-.184.152-.352.264-.504l8.232-11.76h-7.92v-3.12h13.08zm-4.369-2.928c0 .272-.06.532-.18.78a1.978 1.978 0 01-.468.648 2.208 2.208 0 01-.696.444 2.128 2.128 0 01-.84.168c-.28 0-.548-.056-.804-.168a2.335 2.335 0 01-.66-.444 2.066 2.066 0 01-.456-.648 1.874 1.874 0 01-.168-.78c0-.288.056-.556.168-.804.112-.256.264-.48.456-.672.192-.192.412-.344.66-.456.256-.112.524-.168.804-.168.296 0 .576.056.84.168.272.112.504.264.696.456.2.192.356.416.468.672.12.248.18.516.18.804zm12.68 10.008h.649c.6 0 1.032-.188 1.296-.564l3.936-5.712c.216-.312.46-.524.732-.636.28-.112.62-.168 1.02-.168h3.528l-5.184 7.068a3.466 3.466 0 01-1.188 1.056c.304.112.58.268.828.468a2.9 2.9 0 01.696.78L104.51 23h-3.624c-.232 0-.432-.016-.6-.048-.16-.032-.3-.08-.42-.144a1.308 1.308 0 01-.312-.228 2.67 2.67 0 01-.252-.324l-3.96-6.084a1.151 1.151 0 00-.552-.468c-.216-.096-.512-.144-.888-.144h-.984V23h-4.056V5.516h4.056v7.08zM112.836 23h-4.08V5.516h4.08V23zM.144 39.648h2.712c.28 0 .512.068.696.204.192.128.32.304.384.528l2.952 10.38c.072.256.136.536.192.84.064.296.124.612.18.948.064-.336.132-.652.204-.948.08-.304.164-.584.252-.84l3.408-10.38a1.15 1.15 0 01.372-.504c.192-.152.424-.228.696-.228h.948c.28 0 .512.068.696.204a.994.994 0 01.384.528l3.384 10.38c.176.512.328 1.08.456 1.704.056-.312.112-.612.168-.9.064-.288.128-.556.192-.804l2.952-10.38c.056-.2.18-.372.372-.516.192-.144.424-.216.696-.216h2.532L19.584 57h-2.916l-3.792-11.856-.156-.492a19.007 19.007 0 01-.144-.564c-.048.2-.1.388-.156.564-.048.176-.096.34-.144.492L8.448 57H5.532L.144 39.648zm37.866 0c.144 0 .264.008.36.024.096.008.18.032.252.072.08.032.156.084.228.156.072.064.152.152.24.264l9.108 11.604c-.032-.28-.056-.552-.072-.816a25.837 25.837 0 01-.012-.756V39.648h2.844V57H49.29c-.256 0-.468-.04-.636-.12-.168-.08-.332-.224-.492-.432L39.09 44.892c.024.256.04.512.048.768.016.248.024.476.024.684V57h-2.844V39.648h1.692zM72.11 57h-2.496c-.28 0-.512-.068-.696-.204a1.254 1.254 0 01-.384-.528l-1.296-3.54H60.05l-1.296 3.54a1.123 1.123 0 01-.384.504 1.038 1.038 0 01-.684.228h-2.508l6.816-17.352h3.3L72.11 57zm-11.232-6.552h5.532l-2.112-5.772a41.994 41.994 0 01-.324-.9 29.708 29.708 0 01-.336-1.14c-.112.408-.224.788-.336 1.14-.104.352-.208.66-.312.924l-2.112 5.748zm23.083.384c0 .976-.12 1.856-.36 2.64s-.6 1.452-1.08 2.004a4.637 4.637 0 01-1.776 1.272c-.712.296-1.54.444-2.484.444-.432 0-.856-.028-1.272-.084a10.58 10.58 0 01-1.308-.24l.168-1.92a.627.627 0 01.192-.42c.12-.112.292-.168.516-.168.136 0 .312.028.528.084.224.056.504.084.84.084.456 0 .86-.064 1.212-.192.352-.136.644-.348.876-.636.24-.288.42-.66.54-1.116.12-.464.18-1.024.18-1.68V39.648h3.228v11.184zm9.12 3.504h6.949V57H89.854V39.648h3.228v14.688zm22.515-14.688v2.568h-7.692v4.812h6.06v2.484h-6.06v4.908h7.692V57h-10.944V39.648h10.944zm8.526 11.244V57h-3.228V39.648h5.652c1.16 0 2.164.136 3.012.408.848.272 1.548.652 2.1 1.14.552.488.96 1.072 1.224 1.752.264.68.396 1.424.396 2.232 0 .84-.14 1.612-.42 2.316-.28.696-.7 1.296-1.26 1.8s-1.26.896-2.1 1.176c-.84.28-1.824.42-2.952.42h-2.424zm0-2.52h2.424c.592 0 1.108-.072 1.548-.216.44-.152.804-.364 1.092-.636.288-.28.504-.616.648-1.008.144-.4.216-.844.216-1.332 0-.464-.072-.884-.216-1.26a2.49 2.49 0 00-.648-.96 2.821 2.821 0 00-1.092-.6c-.44-.144-.956-.216-1.548-.216h-2.424v6.228zm23.364-5.568c-.088.176-.192.3-.312.372a.739.739 0 01-.408.108c-.16 0-.34-.06-.54-.18-.2-.128-.436-.268-.708-.42a5.41 5.41 0 00-.96-.408c-.36-.128-.788-.192-1.284-.192-.448 0-.84.056-1.176.168a2.473 2.473 0 00-.84.444 1.814 1.814 0 00-.504.696 2.22 2.22 0 00-.168.876c0 .408.112.748.336 1.02.232.272.536.504.912.696.376.192.804.364 1.284.516.48.152.968.316 1.464.492.504.168.996.368 1.476.6.48.224.908.512 1.284.864.376.344.676.768.9 1.272.232.504.348 1.116.348 1.836a5.95 5.95 0 01-.408 2.208 5.043 5.043 0 01-1.176 1.788c-.512.504-1.14.904-1.884 1.2-.744.288-1.596.432-2.556.432a7.958 7.958 0 01-1.632-.168 8.415 8.415 0 01-1.548-.456c-.488-.2-.948-.44-1.38-.72a6.905 6.905 0 01-1.14-.936l.936-1.548a1.14 1.14 0 01.312-.276.777.777 0 01.42-.12c.2 0 .416.084.648.252.232.16.504.34.816.54.32.2.692.384 1.116.552.432.16.948.24 1.548.24.92 0 1.632-.216 2.136-.648.504-.44.756-1.068.756-1.884 0-.456-.116-.828-.348-1.116a2.634 2.634 0 00-.9-.72 6.508 6.508 0 00-1.284-.504c-.48-.136-.968-.284-1.464-.444-.496-.16-.984-.352-1.464-.576a4.743 4.743 0 01-1.284-.876 4.071 4.071 0 01-.912-1.344c-.224-.544-.336-1.212-.336-2.004 0-.632.124-1.248.372-1.848.256-.6.624-1.132 1.104-1.596a5.52 5.52 0 011.788-1.116c.704-.28 1.508-.42 2.412-.42 1.024 0 1.968.16 2.832.48.864.32 1.6.768 2.208 1.344l-.792 1.524zm18.364-3.156v1.188c0 .368-.104.704-.312 1.008l-8.904 12.576h9V57h-13.188v-1.272c0-.16.028-.312.084-.456.056-.152.128-.292.216-.42l8.928-12.636h-8.664v-2.568h12.84zm12.532 10.608V57h-3.228v-6.744l-6.324-10.608h2.844c.28 0 .5.068.66.204.168.136.308.308.42.516l3.18 5.796a16.531 16.531 0 01.852 1.884c.104-.304.22-.608.348-.912.136-.312.296-.636.48-.972l3.156-5.796c.088-.176.22-.34.396-.492.176-.152.4-.228.672-.228h2.856l-6.312 10.608zm21.354 2.652c.176 0 .328.068.456.204l1.272 1.38a6.974 6.974 0 01-2.604 2.004c-1.024.464-2.256.696-3.696.696-1.288 0-2.448-.22-3.48-.66a7.671 7.671 0 01-2.628-1.836c-.728-.784-1.288-1.72-1.68-2.808-.384-1.088-.576-2.276-.576-3.564 0-1.304.216-2.496.648-3.576a8.195 8.195 0 011.824-2.808 8.195 8.195 0 012.808-1.824c1.096-.44 2.304-.66 3.624-.66 1.288 0 2.412.208 3.372.624.968.408 1.796.952 2.484 1.632l-1.08 1.5a.943.943 0 01-.252.252c-.096.072-.232.108-.408.108-.184 0-.372-.072-.564-.216a6.982 6.982 0 00-.732-.468 5.928 5.928 0 00-1.128-.468c-.448-.144-1.02-.216-1.716-.216-.816 0-1.568.144-2.256.432-.68.28-1.268.684-1.764 1.212-.488.528-.872 1.172-1.152 1.932-.272.752-.408 1.6-.408 2.544 0 .976.136 1.844.408 2.604.28.76.656 1.4 1.128 1.92a4.86 4.86 0 001.668 1.2c.64.272 1.328.408 2.064.408.44 0 .836-.024 1.188-.072.36-.048.688-.124.984-.228.304-.104.588-.236.852-.396.272-.168.54-.372.804-.612a.99.99 0 01.252-.168.592.592 0 01.288-.072zM220.95 57h-3.252v-7.584h-8.136V57h-3.252V39.648h3.252v7.464h8.136v-7.464h3.252V57zM16.392 91H13.14v-7.584H5.004V91H1.752V73.648h3.252v7.464h8.136v-7.464h3.252V91zm22.545-8.676c0 1.272-.212 2.452-.636 3.54a8.386 8.386 0 01-1.788 2.808 8.168 8.168 0 01-2.772 1.86c-1.08.44-2.276.66-3.588.66-1.312 0-2.512-.22-3.6-.66a8.298 8.298 0 01-2.784-1.86 8.386 8.386 0 01-1.788-2.808c-.424-1.088-.636-2.268-.636-3.54 0-1.272.212-2.448.636-3.528a8.36 8.36 0 011.788-2.82 8.152 8.152 0 012.784-1.848c1.088-.448 2.288-.672 3.6-.672 1.312 0 2.508.224 3.588.672a8.168 8.168 0 012.772 1.86 8.23 8.23 0 011.788 2.808c.424 1.08.636 2.256.636 3.528zm-3.312 0c0-.952-.128-1.804-.384-2.556-.248-.76-.608-1.404-1.08-1.932a4.665 4.665 0 00-1.728-1.212c-.672-.28-1.432-.42-2.28-.42-.848 0-1.612.14-2.292.42-.68.28-1.26.684-1.74 1.212-.472.528-.836 1.172-1.092 1.932-.256.752-.384 1.604-.384 2.556s.128 1.808.384 2.568c.256.752.62 1.392 1.092 1.92.48.52 1.06.92 1.74 1.2.68.28 1.444.42 2.292.42.848 0 1.608-.14 2.28-.42a4.73 4.73 0 001.728-1.2c.472-.528.832-1.168 1.08-1.92.256-.76.384-1.616.384-2.568zm19.553-8.676V76.3h-5.22V91H46.73V76.3h-5.244v-2.652h13.692zm15.39 0v2.568h-7.692v4.812h6.06v2.484h-6.06v4.908h7.692V91H59.624V73.648h10.944zm8.418 14.688h6.948V91H75.758V73.648h3.228v14.688zM105.81 91h-2.496c-.28 0-.512-.068-.696-.204a1.254 1.254 0 01-.384-.528l-1.296-3.54h-7.188l-1.296 3.54a1.123 1.123 0 01-.384.504 1.038 1.038 0 01-.684.228h-2.508l6.816-17.352h3.3L105.809 91zm-11.232-6.552h5.532l-2.112-5.772a41.994 41.994 0 01-.324-.9 29.708 29.708 0 01-.336-1.14c-.112.408-.224.788-.336 1.14-.104.352-.208.66-.312.924l-2.112 5.748zm26.737 2.46c.176 0 .328.068.456.204l1.272 1.38a6.974 6.974 0 01-2.604 2.004c-1.024.464-2.256.696-3.696.696-1.288 0-2.448-.22-3.48-.66a7.671 7.671 0 01-2.628-1.836c-.728-.784-1.288-1.72-1.68-2.808-.384-1.088-.576-2.276-.576-3.564 0-1.304.216-2.496.648-3.576a8.195 8.195 0 011.824-2.808 8.195 8.195 0 012.808-1.824c1.096-.44 2.304-.66 3.624-.66 1.288 0 2.412.208 3.372.624.968.408 1.796.952 2.484 1.632l-1.08 1.5a.943.943 0 01-.252.252c-.096.072-.232.108-.408.108-.184 0-.372-.072-.564-.216a6.982 6.982 0 00-.732-.468 5.928 5.928 0 00-1.128-.468c-.448-.144-1.02-.216-1.716-.216-.816 0-1.568.144-2.256.432-.68.28-1.268.684-1.764 1.212-.488.528-.872 1.172-1.152 1.932-.272.752-.408 1.6-.408 2.544 0 .976.136 1.844.408 2.604.28.76.656 1.4 1.128 1.92a4.86 4.86 0 001.668 1.2c.64.272 1.328.408 2.064.408.44 0 .836-.024 1.188-.072.36-.048.688-.124.984-.228.304-.104.588-.236.852-.396.272-.168.54-.372.804-.612a.99.99 0 01.252-.168.592.592 0 01.288-.072zM142.528 91h-3.252v-7.584h-8.136V91h-3.252V73.648h3.252v7.464h8.136v-7.464h3.252V91z" fill="#fff"/></svg>