<svg width="205" height="62" viewBox="0 0 205 62" fill="none" xmlns="http://www.w3.org/2000/svg"><g filter="url(#filter0_d_2_14)"><path d="M10 11a5 5 0 015-5h175a5 5 0 015 5v32a5 5 0 01-5 5H15a5 5 0 01-5-5V11z" fill="#F50"/></g><path d="M55.61 21.068c-.12.192-.248.336-.384.432-.128.096-.296.144-.504.144-.184 0-.384-.056-.6-.168a22.85 22.85 0 00-.72-.396 5.392 5.392 0 00-.912-.384 3.56 3.56 0 00-1.176-.18c-.76 0-1.328.164-1.704.492-.368.32-.552.756-.552 1.308 0 .352.112.644.336.876.224.232.516.432.876.6.368.168.784.324 1.248.468.472.136.952.292 1.44.468.488.168.964.368 1.428.6.472.232.888.528 1.248.888.368.36.664.8.888 1.32.224.512.336 1.132.336 1.86a6.08 6.08 0 01-.42 2.268 5.33 5.33 0 01-1.224 1.848c-.528.52-1.184.932-1.968 1.236-.776.296-1.66.444-2.652.444a8.61 8.61 0 01-1.668-.168 10.303 10.303 0 01-1.632-.468 9.888 9.888 0 01-1.488-.732 6.322 6.322 0 01-1.212-.936l1.2-1.896a1.054 1.054 0 01.888-.48c.24 0 .48.076.72.228l.828.504c.312.184.668.352 1.068.504.4.152.872.228 1.416.228.736 0 1.308-.16 1.716-.48.408-.328.612-.844.612-1.548 0-.408-.112-.74-.336-.996a2.583 2.583 0 00-.888-.636 7.893 7.893 0 00-1.236-.444c-.464-.128-.94-.268-1.428-.42-.488-.16-.964-.352-1.428-.576a4.772 4.772 0 01-1.248-.9 4.351 4.351 0 01-.876-1.392c-.224-.56-.336-1.248-.336-2.064a4.956 4.956 0 011.56-3.588c.512-.488 1.14-.876 1.884-1.164.744-.296 1.596-.444 2.556-.444.536 0 1.056.044 1.56.132.512.08.996.204 1.452.372.456.16.88.356 1.272.588.4.224.756.48 1.068.768l-1.008 1.884zm3.264 17.88V22.556h2.304c.232 0 .424.052.576.156.16.104.272.26.336.468l.276.912c.24-.264.496-.504.768-.72.28-.216.576-.4.888-.552.32-.16.66-.284 1.02-.372a5.154 5.154 0 011.2-.132c.648 0 1.248.144 1.8.432a4.148 4.148 0 011.428 1.248c.4.544.712 1.212.936 2.004.232.784.348 1.676.348 2.676 0 .936-.132 1.8-.396 2.592a6.356 6.356 0 01-1.092 2.064 4.953 4.953 0 01-1.68 1.368c-.648.328-1.368.492-2.16.492-.648 0-1.192-.092-1.632-.276a4.43 4.43 0 01-1.2-.744v4.776h-3.72zm6.072-13.788c-.272 0-.52.028-.744.084-.216.048-.42.12-.612.216-.184.096-.356.22-.516.372-.16.144-.32.312-.48.504v5.28c.28.312.584.532.912.66.328.12.672.18 1.032.18.344 0 .66-.068.948-.204.288-.136.536-.352.744-.648.216-.304.384-.696.504-1.176s.18-1.064.18-1.752c0-.656-.048-1.208-.144-1.656-.096-.448-.232-.808-.408-1.08-.168-.28-.372-.48-.612-.6s-.508-.18-.804-.18zM72.749 35V22.556h2.208c.184 0 .336.016.456.048a.717.717 0 01.312.156.542.542 0 01.192.264c.048.112.088.248.12.408l.204 1.164c.456-.704.968-1.26 1.536-1.668a3.12 3.12 0 011.86-.612c.568 0 1.024.136 1.368.408l-.48 2.736c-.032.168-.096.288-.192.36a.682.682 0 01-.384.096c-.136 0-.296-.016-.48-.048a3.358 3.358 0 00-.696-.06c-.976 0-1.744.52-2.304 1.56V35h-3.72zm18.271 0c-.352 0-.62-.048-.804-.144-.176-.096-.324-.296-.444-.6l-.264-.684c-.312.264-.612.496-.9.696a5.94 5.94 0 01-.9.516 4.27 4.27 0 01-.984.3 5.64 5.64 0 01-1.152.108 5.208 5.208 0 01-1.548-.216 3.36 3.36 0 01-1.188-.66 2.919 2.919 0 01-.744-1.068c-.176-.432-.264-.928-.264-1.488 0-.44.112-.892.336-1.356.224-.464.612-.884 1.164-1.26.552-.384 1.296-.704 2.232-.96.936-.256 2.116-.4 3.54-.432v-.528c0-.728-.152-1.252-.456-1.572-.296-.328-.72-.492-1.272-.492-.44 0-.8.048-1.08.144-.28.096-.532.204-.756.324-.216.12-.428.228-.636.324a1.763 1.763 0 01-.744.144c-.256 0-.476-.06-.66-.18a1.466 1.466 0 01-.42-.468l-.672-1.164a7.494 7.494 0 012.496-1.476 8.726 8.726 0 012.952-.492c.752 0 1.428.124 2.028.372.608.24 1.12.58 1.536 1.02.424.432.748.948.972 1.548.224.6.336 1.256.336 1.968V35H91.02zm-4.272-2.268c.48 0 .9-.084 1.26-.252.36-.168.724-.44 1.092-.816v-1.728c-.744.032-1.356.096-1.836.192s-.86.216-1.14.36c-.28.144-.476.308-.588.492a1.199 1.199 0 00-.156.6c0 .424.116.724.348.9.232.168.572.252 1.02.252zm6.943-10.176h2.976c.264 0 .492.06.684.18.192.12.308.276.348.468l1.248 5.58c.096.424.184.836.264 1.236.08.4.152.796.216 1.188.112-.392.228-.784.348-1.176.128-.4.252-.816.372-1.248l1.56-5.592a.773.773 0 01.348-.456c.184-.128.396-.192.636-.192h1.656c.264 0 .488.064.672.192.192.12.312.272.36.456l1.488 5.592c.112.424.224.836.336 1.236.12.4.232.804.336 1.212.064-.4.14-.796.228-1.188l.3-1.26 1.32-5.58a.725.725 0 01.336-.468c.192-.12.408-.18.648-.18h2.832L109.339 35h-3.024a.606.606 0 01-.408-.144c-.112-.096-.2-.256-.264-.48l-1.776-6.204c-.08-.28-.156-.556-.228-.828a15.043 15.043 0 01-.192-.816c-.056.28-.12.56-.192.84-.064.272-.14.548-.228.828l-1.8 6.18c-.12.416-.384.624-.792.624h-2.88l-3.864-12.444zM123.391 35c-.232 0-.428-.052-.588-.156a.844.844 0 01-.324-.468l-.288-.948a7.295 7.295 0 01-.78.72 5.066 5.066 0 01-.888.564 4.504 4.504 0 01-1.02.348c-.36.088-.752.132-1.176.132a3.833 3.833 0 01-1.8-.432 4.148 4.148 0 01-1.428-1.248c-.4-.544-.716-1.208-.948-1.992-.224-.792-.336-1.692-.336-2.7 0-.928.128-1.788.384-2.58.256-.8.616-1.488 1.08-2.064a5.073 5.073 0 011.692-1.368 4.788 4.788 0 012.172-.492c.64 0 1.18.096 1.62.288.448.184.852.428 1.212.732v-6.3h3.72V35h-2.304zm-3.768-2.664c.272 0 .516-.024.732-.072.224-.056.428-.132.612-.228s.356-.216.516-.36c.168-.144.332-.312.492-.504v-5.28c-.288-.312-.596-.528-.924-.648a2.72 2.72 0 00-1.02-.192c-.344 0-.66.068-.948.204a1.96 1.96 0 00-.756.66c-.208.296-.372.684-.492 1.164-.12.48-.18 1.06-.18 1.74 0 .656.048 1.208.144 1.656.096.448.228.812.396 1.092.176.272.384.468.624.588.24.12.508.18.804.18zm18.242-8.292c0 .256-.048.5-.144.732a2.67 2.67 0 01-.336.6l-5.196 6.864h5.556V35h-9.84v-1.512c0-.152.04-.34.12-.564.088-.232.208-.452.36-.66l5.244-6.948h-5.388v-2.76h9.624v1.488zm.12-6.72l-3.12 3.156c-.184.184-.36.316-.528.396-.168.072-.392.108-.672.108h-2.232l1.632-2.94c.136-.232.296-.408.48-.528.184-.128.464-.192.84-.192h3.6z" fill="#fff"/><path d="M158.647 21.349c-1.613-1.593-3.763-2.522-6.047-2.522s-4.434.93-6.047 2.522C144.941 22.94 144 25.064 144 27.32c0 2.256.941 4.38 2.553 5.972 1.613 1.593 3.763 2.521 6.047 2.521s4.434-.928 6.047-2.52c1.612-1.593 2.553-3.717 2.553-5.973s-.806-4.379-2.553-5.971zM152.6 35.017c-4.3 0-7.794-3.45-7.794-7.697 0-4.246 3.494-7.696 7.794-7.696 4.3 0 7.794 3.45 7.794 7.696 0 4.247-3.494 7.697-7.794 7.697z" fill="#fff" stroke="#fff" stroke-width=".5" stroke-miterlimit="10"/><path d="M151.928 30.77c-.134 0-.134 0-.269-.132-.134-.133-.134-.265 0-.398v0a4.103 4.103 0 000-5.839v0c-.134-.133-.134-.265 0-.398.135-.133.269-.133.404 0l3.09 3.052c.134.133.134.265 0 .398l-2.849 2.814c-.154.152-.159.504-.376.504v0z" fill="#fff" stroke="#fff" stroke-width=".5" stroke-miterlimit="10"/><defs><filter id="filter0_d_2_14" x="0" y="0" width="205" height="62" filterUnits="userSpaceOnUse" color-interpolation-filters="sRGB"><feFlood flood-opacity="0" result="BackgroundImageFix"/><feColorMatrix in="SourceAlpha" values="0 0 0 0 0 0 0 0 0 0 0 0 0 0 0 0 0 0 127 0" result="hardAlpha"/><feOffset dy="4"/><feGaussianBlur stdDeviation="5"/><feComposite in2="hardAlpha" operator="out"/><feColorMatrix values="0 0 0 0 0 0 0 0 0 0 0 0 0 0 0 0 0 0 0.13 0"/><feBlend in2="BackgroundImageFix" result="effect1_dropShadow_2_14"/><feBlend in="SourceGraphic" in2="effect1_dropShadow_2_14" result="shape"/></filter></defs></svg>