<svg width="99" height="99" viewBox="0 0 99 99" fill="none" xmlns="http://www.w3.org/2000/svg"><rect width="99" height="99" rx="49.5" fill="#F50"/><path d="M17.28 24.432c.096 0 .176.005.24.016.064.005.12.021.168.048a.456.456 0 01.152.104c.048.043.102.101.16.176l6.072 7.736a10.125 10.125 0 01-.048-.544 16.99 16.99 0 01-.008-.504v-7.032h1.896V36H24.8a.986.986 0 01-.424-.08.943.943 0 01-.328-.288L18 27.928c.016.17.027.341.032.512.011.165.016.317.016.456V36h-1.896V24.432h1.128zM34.566 36h-.888a.998.998 0 01-.44-.08c-.106-.059-.187-.173-.24-.344l-.176-.584a6.964 6.964 0 01-.616.496 3.732 3.732 0 01-.616.352c-.213.096-.44.168-.68.216a4.09 4.09 0 01-.8.072c-.346 0-.666-.045-.96-.136a2.158 2.158 0 01-.76-.424 1.932 1.932 0 01-.488-.696 2.47 2.47 0 01-.176-.968c0-.31.08-.613.24-.912.165-.304.438-.576.816-.816.379-.245.883-.448 1.512-.608.63-.16 1.41-.25 2.344-.272v-.48c0-.55-.117-.955-.352-1.216-.23-.267-.565-.4-1.008-.4-.32 0-.586.037-.8.112-.213.075-.4.16-.56.256-.154.09-.299.173-.432.248a.885.885 0 01-.44.112.572.572 0 01-.344-.104.82.82 0 01-.232-.256l-.36-.632c.944-.864 2.083-1.296 3.416-1.296.48 0 .907.08 1.28.24.379.155.699.373.96.656.262.277.459.61.592 1 .139.39.208.816.208 1.28V36zm-3.84-1.232c.203 0 .39-.019.56-.056.17-.037.33-.093.48-.168.155-.075.302-.165.44-.272.144-.112.288-.243.432-.392v-1.384c-.576.027-1.058.077-1.448.152-.384.07-.693.16-.928.272-.235.112-.402.243-.504.392a.885.885 0 00-.144.488c0 .347.101.595.304.744.208.15.477.224.808.224zm4.642-6.976h1.569a.65.65 0 01.376.104c.1.07.165.157.191.264l1.177 4.384c.064.24.114.475.152.704.042.23.082.459.12.688.058-.23.12-.459.183-.688l.216-.704 1.36-4.4a.495.495 0 01.192-.264.559.559 0 01.336-.104h.872a.6.6 0 01.36.104c.096.07.16.157.192.264l1.344 4.48c.07.23.131.453.184.672.06.213.115.43.169.648.037-.23.077-.459.12-.688.047-.23.106-.467.175-.712l1.217-4.384a.446.446 0 01.192-.264.608.608 0 01.352-.104h1.495L45.313 36h-1.591c-.171 0-.294-.117-.368-.352l-1.48-4.744c-.048-.155-.094-.31-.136-.464a8.288 8.288 0 01-.096-.472c-.032.16-.067.32-.105.48-.037.155-.08.312-.128.472l-1.495 4.728c-.075.235-.22.352-.432.352h-1.513l-2.6-8.208zm17.049-.128c.517 0 .992.083 1.424.248.437.165.813.408 1.128.728.314.315.56.704.736 1.168.176.459.264.984.264 1.576 0 .15-.008.275-.024.376a.542.542 0 01-.072.232.3.3 0 01-.136.12.666.666 0 01-.224.032H50.44c.058.843.285 1.461.68 1.856.394.395.917.592 1.568.592.32 0 .594-.037.824-.112.234-.075.437-.157.608-.248.176-.09.328-.173.456-.248a.786.786 0 01.384-.112c.08 0 .15.016.208.048a.46.46 0 01.152.136l.576.72a3.382 3.382 0 01-.736.648c-.272.17-.558.31-.856.416a4.756 4.756 0 01-.904.216c-.304.043-.6.064-.888.064a4.44 4.44 0 01-1.592-.28 3.634 3.634 0 01-1.28-.84 3.99 3.99 0 01-.856-1.376c-.208-.55-.312-1.184-.312-1.904 0-.56.09-1.085.272-1.576a3.78 3.78 0 01.776-1.288 3.696 3.696 0 011.24-.872 4.113 4.113 0 011.656-.32zm.04 1.416c-.576 0-1.027.163-1.352.488-.326.325-.534.787-.624 1.384h3.712c0-.256-.035-.496-.104-.72-.07-.23-.176-.43-.32-.6a1.475 1.475 0 00-.544-.4 1.811 1.811 0 00-.768-.152zm7.81 7.048c-.709 0-1.255-.2-1.64-.6-.383-.405-.575-.963-.575-1.672v-4.584h-.832a.415.415 0 01-.28-.104c-.075-.07-.112-.173-.112-.312v-.784l1.32-.216.416-2.24a.404.404 0 01.144-.248.487.487 0 01.296-.088h1.024v2.584h2.16v1.408h-2.16v4.448c0 .256.064.456.192.6a.651.651 0 00.512.216.975.975 0 00.304-.04c.085-.032.157-.064.216-.096.064-.032.12-.061.168-.088a.258.258 0 01.144-.048c.058 0 .106.016.144.048.037.027.077.07.12.128l.592.96c-.288.24-.619.421-.992.544-.374.123-.76.184-1.16.184zM72.63 36c-.256 0-.424-.12-.504-.36l-.16-.792c-.17.192-.35.365-.536.52-.187.155-.39.288-.608.4a2.927 2.927 0 01-.696.256 3.163 3.163 0 01-.8.096c-.448 0-.859-.093-1.232-.28a2.797 2.797 0 01-.968-.808c-.267-.357-.475-.797-.624-1.32-.144-.523-.216-1.12-.216-1.792 0-.608.083-1.173.248-1.696.165-.523.403-.976.712-1.36.31-.384.68-.683 1.112-.896a3.178 3.178 0 011.456-.328c.459 0 .85.075 1.176.224.325.144.616.339.872.584v-4.336h1.976V36h-1.208zm-2.632-1.448c.41 0 .76-.085 1.048-.256.288-.17.56-.413.816-.728v-3.68a1.936 1.936 0 00-.736-.576 2.13 2.13 0 00-.848-.168c-.299 0-.57.056-.816.168-.24.112-.445.283-.616.512a2.487 2.487 0 00-.384.864 4.91 4.91 0 00-.136 1.232c0 .48.037.888.112 1.224.08.33.192.603.336.816.144.208.32.36.528.456.208.09.44.136.696.136zm9.485-6.888c.613 0 1.168.099 1.664.296.501.197.928.477 1.28.84s.624.805.816 1.328c.192.523.288 1.107.288 1.752 0 .65-.096 1.237-.288 1.76a3.8 3.8 0 01-.816 1.336c-.352.368-.779.65-1.28.848a4.468 4.468 0 01-1.664.296 4.53 4.53 0 01-1.672-.296 3.615 3.615 0 01-1.288-.848 3.896 3.896 0 01-.824-1.336 5.076 5.076 0 01-.288-1.76c0-.645.096-1.23.288-1.752a3.81 3.81 0 01.824-1.328 3.668 3.668 0 011.288-.84 4.53 4.53 0 011.672-.296zm0 6.936c.683 0 1.186-.23 1.512-.688.33-.459.496-1.13.496-2.016 0-.885-.165-1.56-.496-2.024-.326-.464-.83-.696-1.512-.696-.694 0-1.206.235-1.536.704-.33.464-.496 1.136-.496 2.016 0 .88.165 1.552.496 2.016.33.459.843.688 1.536.688zM9.025 57.806h9.72v4.5h-9.72v-4.5zm23.908-3.42c.948 0 1.884.156 2.808.468a7.174 7.174 0 012.484 1.44c.732.648 1.32 1.47 1.764 2.466.456.984.684 2.148.684 3.492a9.057 9.057 0 01-.684 3.492 8.724 8.724 0 01-1.944 2.88c-.828.816-1.83 1.464-3.006 1.944-1.176.48-2.478.72-3.906.72-1.464 0-2.778-.228-3.942-.684-1.164-.468-2.154-1.116-2.97-1.944-.804-.828-1.422-1.818-1.854-2.97-.42-1.152-.63-2.418-.63-3.798 0-1.308.252-2.61.756-3.906.504-1.296 1.248-2.616 2.232-3.96l5.904-7.974c.264-.36.66-.66 1.188-.9.528-.252 1.128-.378 1.8-.378h4.968l-7.776 9.288c-.12.132-.24.27-.36.414l-.324.396a7.85 7.85 0 011.314-.36 8.454 8.454 0 011.494-.126zM27.1 62.648c0 .648.078 1.23.234 1.746.156.516.396.96.72 1.332.324.372.732.66 1.224.864.492.192 1.074.288 1.746.288a3.94 3.94 0 001.602-.324 3.94 3.94 0 001.296-.882 4.27 4.27 0 00.846-1.332 4.291 4.291 0 00.324-1.674c0-.672-.102-1.272-.306-1.8a3.585 3.585 0 00-.828-1.332 3.61 3.61 0 00-1.314-.828 4.722 4.722 0 00-1.692-.288c-.564 0-1.08.102-1.548.306a3.452 3.452 0 00-1.224.846 4.09 4.09 0 00-.792 1.332c-.192.516-.288 1.098-.288 1.746zm34.49-4.77c0 2.292-.245 4.278-.737 5.958-.492 1.68-1.176 3.072-2.052 4.176-.864 1.104-1.896 1.926-3.096 2.466-1.188.54-2.478.81-3.87.81s-2.682-.27-3.87-.81c-1.176-.54-2.196-1.362-3.06-2.466-.864-1.104-1.542-2.496-2.034-4.176-.48-1.68-.72-3.666-.72-5.958 0-2.292.24-4.278.72-5.958.492-1.68 1.17-3.072 2.034-4.176.864-1.104 1.884-1.92 3.06-2.448 1.188-.54 2.478-.81 3.87-.81s2.682.27 3.87.81c1.2.528 2.232 1.344 3.096 2.448.876 1.104 1.56 2.496 2.052 4.176.492 1.68.738 3.666.738 5.958zm-5.76 0c0-1.812-.113-3.294-.341-4.446-.228-1.164-.534-2.076-.918-2.736-.372-.66-.798-1.11-1.278-1.35a3.107 3.107 0 00-1.458-.378c-.492 0-.978.126-1.458.378-.468.24-.888.69-1.26 1.35-.36.66-.654 1.572-.882 2.736-.216 1.152-.324 2.634-.324 4.446 0 1.824.108 3.312.324 4.464.228 1.152.522 2.064.882 2.736.372.66.792 1.116 1.26 1.368.48.24.966.36 1.458.36s.978-.12 1.458-.36c.48-.252.906-.708 1.278-1.368.384-.672.69-1.584.918-2.736.228-1.152.342-2.64.342-4.464zm19.947-6.75c0 .96-.174 1.836-.522 2.628a6.653 6.653 0 01-1.385 2.052 6.168 6.168 0 01-2.016 1.314 6.168 6.168 0 01-2.377.468c-.911 0-1.751-.156-2.52-.468a6.013 6.013 0 01-1.98-1.314 6.227 6.227 0 01-1.295-2.052c-.313-.792-.468-1.668-.468-2.628 0-.996.155-1.896.467-2.7a6.15 6.15 0 011.296-2.088 5.88 5.88 0 011.98-1.332c.769-.324 1.609-.486 2.52-.486.913 0 1.753.162 2.52.486.78.312 1.447.756 1.998 1.332a6.009 6.009 0 011.315 2.088c.311.804.467 1.704.467 2.7zm-4.284 0c0-.612-.053-1.116-.162-1.512-.095-.408-.233-.732-.413-.972a1.451 1.451 0 00-.648-.504 2.114 2.114 0 00-.793-.144c-.287 0-.551.048-.791.144-.24.096-.444.264-.612.504-.169.24-.3.564-.397.972-.096.396-.144.9-.144 1.512 0 .576.048 1.056.144 1.44.097.384.228.69.397.918.168.228.371.39.611.486.24.096.504.144.792.144.288 0 .553-.048.793-.144.251-.096.468-.258.647-.486.18-.228.319-.534.414-.918.109-.384.163-.864.163-1.44zm12.528-5.526c.18-.204.402-.39.666-.558.264-.18.63-.27 1.099-.27h4.067L70.091 70.208a2.3 2.3 0 01-.684.576c-.264.144-.588.216-.972.216h-4.177l19.764-25.398zm6.84 19.242c0 .96-.173 1.842-.521 2.646a6.653 6.653 0 01-1.386 2.052 6.168 6.168 0 01-2.016 1.314 6.168 6.168 0 01-2.376.468c-.913 0-1.752-.156-2.52-.468a6.013 6.013 0 01-1.98-1.314 6.227 6.227 0 01-1.297-2.052c-.312-.804-.468-1.686-.468-2.646 0-.996.156-1.896.468-2.7a6.15 6.15 0 011.296-2.088 5.88 5.88 0 011.98-1.332c.769-.324 1.608-.486 2.52-.486.913 0 1.752.162 2.52.486.78.312 1.447.756 1.999 1.332a6.009 6.009 0 011.313 2.088c.313.804.468 1.704.468 2.7zm-4.283 0c0-.6-.054-1.098-.162-1.494-.097-.408-.234-.732-.415-.972a1.451 1.451 0 00-.647-.504 2.114 2.114 0 00-.793-.144c-.287 0-.552.048-.791.144-.24.096-.445.264-.612.504-.169.24-.3.564-.397.972-.096.396-.144.894-.144 1.494 0 .576.049 1.056.145 1.44.096.384.227.69.395.918.168.228.373.39.612.486.24.096.505.144.793.144.287 0 .552-.048.791-.144.252-.096.469-.258.648-.486.18-.228.319-.534.415-.918.108-.384.162-.864.162-1.44z" fill="#fff"/></svg>